<mxfile host="app.diagrams.net" modified="2020-09-30T07:05:09.149Z" agent="5.0 (Windows NT 10.0; Win64; x64) AppleWebKit/537.36 (KHTML, like Gecko) Chrome/85.0.4183.121 Safari/537.36" etag="1SHerXM9WrErA_0rSAox" version="13.7.6" type="github">
  <diagram id="nkIvSxNbzmWgJdcHDm_h" name="Page-1">
    <mxGraphModel dx="1038" dy="580" grid="1" gridSize="10" guides="1" tooltips="1" connect="1" arrows="1" fold="1" page="1" pageScale="1" pageWidth="827" pageHeight="1169" math="0" shadow="0">
      <root>
        <mxCell id="0" />
        <mxCell id="1" parent="0" />
        <mxCell id="5xa-9oWxoMziLfprim7N-1" value="EnrollmentSystem" style="swimlane;fontStyle=1;align=center;verticalAlign=top;childLayout=stackLayout;horizontal=1;startSize=26;horizontalStack=0;resizeParent=1;resizeParentMax=0;resizeLast=0;collapsible=1;marginBottom=0;" vertex="1" parent="1">
          <mxGeometry x="330" y="262" width="190" height="220" as="geometry" />
        </mxCell>
        <mxCell id="5xa-9oWxoMziLfprim7N-2" value="+ students: Students ||&#xa;+ courses: Courses ||" style="text;strokeColor=none;fillColor=none;align=left;verticalAlign=top;spacingLeft=4;spacingRight=4;overflow=hidden;rotatable=0;points=[[0,0.5],[1,0.5]];portConstraint=eastwest;" vertex="1" parent="5xa-9oWxoMziLfprim7N-1">
          <mxGeometry y="26" width="190" height="44" as="geometry" />
        </mxCell>
        <mxCell id="5xa-9oWxoMziLfprim7N-3" value="" style="line;strokeWidth=1;fillColor=none;align=left;verticalAlign=middle;spacingTop=-1;spacingLeft=3;spacingRight=3;rotatable=0;labelPosition=right;points=[];portConstraint=eastwest;" vertex="1" parent="5xa-9oWxoMziLfprim7N-1">
          <mxGeometry y="70" width="190" height="10" as="geometry" />
        </mxCell>
        <mxCell id="5xa-9oWxoMziLfprim7N-4" value="+ enroll (Student, Course): void&#xa;+ remove (Student, Course): void&#xa;+ showParticipants(Course): void&#xa;+ getCourses(): void&#xa;+ getStudents(): void&#xa;+ addCourse(): void&#xa;+ removeCourse(): void&#xa;+ addStudent(): void&#xa;+ removeStudent(): void" style="text;strokeColor=none;fillColor=none;align=left;verticalAlign=top;spacingLeft=4;spacingRight=4;overflow=hidden;rotatable=0;points=[[0,0.5],[1,0.5]];portConstraint=eastwest;" vertex="1" parent="5xa-9oWxoMziLfprim7N-1">
          <mxGeometry y="80" width="190" height="140" as="geometry" />
        </mxCell>
        <mxCell id="5xa-9oWxoMziLfprim7N-14" value="Course" style="swimlane;fontStyle=1;align=center;verticalAlign=top;childLayout=stackLayout;horizontal=1;startSize=26;horizontalStack=0;resizeParent=1;resizeParentMax=0;resizeLast=0;collapsible=1;marginBottom=0;" vertex="1" parent="1">
          <mxGeometry x="210" y="542" width="160" height="130" as="geometry" />
        </mxCell>
        <mxCell id="5xa-9oWxoMziLfprim7N-15" value="name: String&#xa;participants: String" style="text;strokeColor=none;fillColor=none;align=left;verticalAlign=top;spacingLeft=4;spacingRight=4;overflow=hidden;rotatable=0;points=[[0,0.5],[1,0.5]];portConstraint=eastwest;" vertex="1" parent="5xa-9oWxoMziLfprim7N-14">
          <mxGeometry y="26" width="160" height="44" as="geometry" />
        </mxCell>
        <mxCell id="5xa-9oWxoMziLfprim7N-16" value="" style="line;strokeWidth=1;fillColor=none;align=left;verticalAlign=middle;spacingTop=-1;spacingLeft=3;spacingRight=3;rotatable=0;labelPosition=right;points=[];portConstraint=eastwest;" vertex="1" parent="5xa-9oWxoMziLfprim7N-14">
          <mxGeometry y="70" width="160" height="8" as="geometry" />
        </mxCell>
        <mxCell id="5xa-9oWxoMziLfprim7N-17" value="+ enroll(Student): void&#xa;+ remove(Student): void&#xa;+ getParticipants(): void" style="text;strokeColor=none;fillColor=none;align=left;verticalAlign=top;spacingLeft=4;spacingRight=4;overflow=hidden;rotatable=0;points=[[0,0.5],[1,0.5]];portConstraint=eastwest;" vertex="1" parent="5xa-9oWxoMziLfprim7N-14">
          <mxGeometry y="78" width="160" height="52" as="geometry" />
        </mxCell>
        <mxCell id="5xa-9oWxoMziLfprim7N-21" style="edgeStyle=orthogonalEdgeStyle;rounded=0;orthogonalLoop=1;jettySize=auto;html=1;" edge="1" parent="1" source="5xa-9oWxoMziLfprim7N-15">
          <mxGeometry relative="1" as="geometry">
            <mxPoint x="520" y="590" as="targetPoint" />
            <Array as="points">
              <mxPoint x="510" y="590" />
            </Array>
          </mxGeometry>
        </mxCell>
        <mxCell id="5xa-9oWxoMziLfprim7N-31" value="Text" style="text;html=1;align=center;verticalAlign=middle;resizable=0;points=[];autosize=1;" vertex="1" parent="1">
          <mxGeometry x="450" y="670" width="40" height="20" as="geometry" />
        </mxCell>
        <mxCell id="5xa-9oWxoMziLfprim7N-26" value="Student" style="swimlane;fontStyle=1;align=center;verticalAlign=top;childLayout=stackLayout;horizontal=1;startSize=26;horizontalStack=0;resizeParent=1;resizeParentMax=0;resizeLast=0;collapsible=1;marginBottom=0;" vertex="1" parent="1">
          <mxGeometry x="540" y="550" width="160" height="128" as="geometry" />
        </mxCell>
        <mxCell id="5xa-9oWxoMziLfprim7N-30" value="name: String&#xa;id: int" style="text;strokeColor=none;fillColor=none;align=left;verticalAlign=top;spacingLeft=4;spacingRight=4;overflow=hidden;rotatable=0;points=[[0,0.5],[1,0.5]];portConstraint=eastwest;" vertex="1" parent="5xa-9oWxoMziLfprim7N-26">
          <mxGeometry y="26" width="160" height="34" as="geometry" />
        </mxCell>
        <mxCell id="5xa-9oWxoMziLfprim7N-27" value="name: String&#xa;id: int" style="text;strokeColor=none;fillColor=none;align=left;verticalAlign=top;spacingLeft=4;spacingRight=4;overflow=hidden;rotatable=0;points=[[0,0.5],[1,0.5]];portConstraint=eastwest;" vertex="1" parent="5xa-9oWxoMziLfprim7N-26">
          <mxGeometry y="60" width="160" height="34" as="geometry" />
        </mxCell>
        <mxCell id="5xa-9oWxoMziLfprim7N-28" value="" style="line;strokeWidth=1;fillColor=none;align=left;verticalAlign=middle;spacingTop=-1;spacingLeft=3;spacingRight=3;rotatable=0;labelPosition=right;points=[];portConstraint=eastwest;" vertex="1" parent="5xa-9oWxoMziLfprim7N-26">
          <mxGeometry y="94" width="160" height="8" as="geometry" />
        </mxCell>
        <mxCell id="5xa-9oWxoMziLfprim7N-29" value="+ getName(): String" style="text;strokeColor=none;fillColor=none;align=left;verticalAlign=top;spacingLeft=4;spacingRight=4;overflow=hidden;rotatable=0;points=[[0,0.5],[1,0.5]];portConstraint=eastwest;" vertex="1" parent="5xa-9oWxoMziLfprim7N-26">
          <mxGeometry y="102" width="160" height="26" as="geometry" />
        </mxCell>
        <mxCell id="5xa-9oWxoMziLfprim7N-35" style="edgeStyle=orthogonalEdgeStyle;rounded=0;orthogonalLoop=1;jettySize=auto;html=1;" edge="1" parent="1" source="5xa-9oWxoMziLfprim7N-4">
          <mxGeometry relative="1" as="geometry">
            <mxPoint x="630" y="530" as="targetPoint" />
          </mxGeometry>
        </mxCell>
        <mxCell id="5xa-9oWxoMziLfprim7N-36" style="edgeStyle=orthogonalEdgeStyle;rounded=0;orthogonalLoop=1;jettySize=auto;html=1;" edge="1" parent="1" source="5xa-9oWxoMziLfprim7N-4">
          <mxGeometry relative="1" as="geometry">
            <mxPoint x="270" y="520" as="targetPoint" />
          </mxGeometry>
        </mxCell>
      </root>
    </mxGraphModel>
  </diagram>
</mxfile>
